<svg width="84" height="84" viewBox="0 0 84 84" fill="none" xmlns="http://www.w3.org/2000/svg">
<circle cx="42" cy="42" r="42" fill="white"/>
<path d="M68 46.9333V64C68 65.1046 67.1046 66 66 66H46C44.8954 66 44 65.1046 44 64V46.9333" stroke="#0B2E4E" stroke-width="2" stroke-linecap="round" stroke-linejoin="round"/>
<path d="M66 42.6001H46C44.8954 42.6001 44 43.4955 44 44.6001V46.6668C44 47.7713 44.8954 48.6668 46 48.6668H66C67.1046 48.6668 68 47.7713 68 46.6668V44.6001C68 43.4955 67.1046 42.6001 66 42.6001Z" stroke="#0B2E4E" stroke-width="2" stroke-linejoin="round"/>
<path d="M59.3223 53H60.9013" stroke="#FF4013" stroke-linecap="round"/>
<path d="M63.3511 53H64.9301" stroke="#FF4013" stroke-linecap="round"/>
<path d="M55.3633 59.0669H56.9423" stroke="#FF4013" stroke-linecap="round"/>
<path d="M47.1304 59H48.7094" stroke="#FF4013" stroke-linecap="round"/>
<path d="M51.3345 59.0669H52.9135" stroke="#FF4013" stroke-linecap="round"/>
<path d="M59.3921 59.0669H60.9711" stroke="#FF4013" stroke-linecap="round"/>
<path d="M63.4209 59.0669H64.9999" stroke="#FF4013" stroke-linecap="round"/>
<path d="M55.3633 56.0669H56.9423" stroke="#FF4013" stroke-linecap="round"/>
<path d="M47.1304 56H48.7094" stroke="#FF4013" stroke-linecap="round"/>
<path d="M51.3345 56.0669H52.9135" stroke="#FF4013" stroke-linecap="round"/>
<path d="M59.3921 56.0669H60.9711" stroke="#FF4013" stroke-linecap="round"/>
<path d="M63.4209 56.0669H64.9999" stroke="#FF4013" stroke-linecap="round"/>
<path d="M55.188 62H56.767" stroke="#FF4013" stroke-linecap="round"/>
<path d="M47.1304 62H48.7094" stroke="#FF4013" stroke-linecap="round"/>
<path d="M51.1592 62H52.7382" stroke="#FF4013" stroke-linecap="round"/>
<path d="M48.9653 44.3333V40" stroke="#0B2E4E" stroke-width="2" stroke-linecap="round"/>
<path d="M63.0347 44.3333V40" stroke="#0B2E4E" stroke-width="2" stroke-linecap="round"/>
<path d="M56 38.375C56 35.149 55.9413 28.3203 55.9005 23.9569C55.88 21.7639 54.096 20 51.9029 20H28C25.7909 20 24 21.7909 24 24V55C24 57.2091 25.7909 59 28 59H39.5" stroke="#0B2E4E" stroke-width="2" stroke-linecap="round" stroke-linejoin="round"/>
<path d="M34 26H51" stroke="#FF4013" stroke-linecap="round"/>
<path d="M34 31H51" stroke="#FF4013" stroke-linecap="round"/>
<path d="M34 36H51" stroke="#FF4013" stroke-linecap="round"/>
<path d="M29 26H32" stroke="#FF4013" stroke-linecap="round"/>
<path d="M29 31H32" stroke="#FF4013" stroke-linecap="round"/>
<path d="M29 36H32" stroke="#FF4013" stroke-linecap="round"/>
</svg>