<svg width="84" height="84" viewBox="0 0 84 84" fill="none" xmlns="http://www.w3.org/2000/svg">
<circle cx="42" cy="42" r="42" fill="white"/>
<rect x="18" y="24" width="49" height="39.3514" rx="5" stroke="#0B2E4E" stroke-width="2"/>
<path d="M22 27H24.0676" stroke="#0B2E4E" stroke-linecap="round"/>
<path d="M25.4458 27H27.5134" stroke="#0B2E4E" stroke-linecap="round"/>
<path d="M28.8916 27H30.9592" stroke="#0B2E4E" stroke-linecap="round"/>
<line x1="19" y1="29.5" x2="67" y2="29.5" stroke="#0B2E4E"/>
<path d="M32.8516 39.6059L34.9191 41.608L39.0543 36.7837" stroke="#FF4013" stroke-linecap="round" stroke-linejoin="round"/>
<path d="M42 39H53.0606" stroke="#FF4013" stroke-linecap="round"/>
<path d="M42 51H53.0606" stroke="#FF4013" stroke-linecap="round"/>
<path d="M42 43H50.2953" stroke="#FF4013" stroke-linecap="round"/>
<path d="M42 55H50.2953" stroke="#FF4013" stroke-linecap="round"/>
<rect x="31" y="49" width="8" height="8" rx="2" stroke="#FF4013" stroke-linecap="round"/>
<path d="M35.6667 37H33C31.8954 37 31 37.8954 31 39V43C31 44.1046 31.8954 45 33 45H37C38.1046 45 39 44.1046 39 43V40.3333" stroke="#FF4013" stroke-linecap="round"/>
</svg>