<svg xmlns="http://www.w3.org/2000/svg" width="236.234" height="34"><path d="M10.606 27.805a10.558 10.558 0 0 1-5.93-1.807 10.635 10.635 0 0 1-3.842-4.669 10.587 10.587 0 0 1 .977-10.056 10.638 10.638 0 0 1 4.667-3.842 10.594 10.594 0 0 1 10.058.978 10.662 10.662 0 0 1 2.864 2.864c.035.051.07.1.1.156h-3.36a8 8 0 1 0 .3 11.411h3.15c-.062.1-.126.2-.189.289a10.636 10.636 0 0 1-4.666 3.842 10.544 10.544 0 0 1-4.129.834ZM86.078 11.293a8.217 8.217 0 0 1 4.616 1.412 8.28 8.28 0 0 1 2.991 3.631 8.245 8.245 0 0 1-.761 7.829 8.28 8.28 0 0 1-3.632 2.991 8.245 8.245 0 0 1-7.829-.761 8.28 8.28 0 0 1-2.991-3.632 8.245 8.245 0 0 1 .761-7.829 8.28 8.28 0 0 1 3.632-2.991 8.2 8.2 0 0 1 3.213-.65Zm-.018 13.994a5.757 5.757 0 1 0-5.757-5.757 5.763 5.763 0 0 0 5.757 5.757Z" fill="#ff4013"/><path d="M44.562 19.652c0-4.989-3.336-8.356-8.019-8.356a7.944 7.944 0 0 0-8.141 8.264c0 4.836 3.489 8.294 8.723 8.294a8.142 8.142 0 0 0 6.4-2.632l-1.622-1.9a6.057 6.057 0 0 1-4.683 1.959c-3.214 0-5.509-1.9-5.877-4.744h13.158c.031-.273.061-.641.061-.885Zm-8.019-5.876a5.059 5.059 0 0 1 5.2 4.652H31.34a5.056 5.056 0 0 1 5.203-4.652Z" fill="#ff4013" stroke="rgba(0,0,0,0)"/><path d="M22.918 14.176v-2.724h-2.816v16.222h2.938v-8.08c0-3.55 1.959-5.479 5.111-5.479a5.189 5.189 0 0 1 .673.031V11.3c-2.845-.004-4.87.976-5.906 2.876ZM71.79 24.609a2.648 2.648 0 0 1-1.893.765c-1.622 0-2.138-.979-2.138-2.723v-8.782h4.651v-2.417h-4.652V6.695h-2.939v4.757H63.81v2.417h1.009v8.9c0 3.274 1.464 5.079 4.739 5.079a4.471 4.471 0 0 0 3.148-1.132ZM73.786 27.671h2.938V11.449h-2.938Z" fill="#ff4013"/><g fill="#ff4013"><path d="M53.732 11.293a8.217 8.217 0 0 1 4.616 1.412 8.28 8.28 0 0 1 2.991 3.631 8.245 8.245 0 0 1-.761 7.829 8.28 8.28 0 0 1-3.632 2.991 8.245 8.245 0 0 1-7.829-.761 8.28 8.28 0 0 1-2.991-3.632 8.245 8.245 0 0 1 .761-7.829 8.28 8.28 0 0 1 3.632-2.991 8.2 8.2 0 0 1 3.213-.65Zm-.018 13.994a5.757 5.757 0 1 0-5.757-5.757 5.763 5.763 0 0 0 5.757 5.757Z"/><path d="M59.561 27.671h2.536V11.449h-2.536Z"/></g><g fill="#0b2e4e"><path d="M117.643 27.922h3.191l-9.665-21.276h-3.009l-9.635 21.276h3.131l2.34-5.319h11.307Zm-12.583-7.751 4.59-10.425 4.59 10.425Zm24.285 7.933a7.207 7.207 0 0 0 6.565-3.465l-2.219-1.4a5.022 5.022 0 0 1-4.377 2.31 5.338 5.338 0 0 1-5.532-5.684 5.346 5.346 0 0 1 5.535-5.651 5.022 5.022 0 0 1 4.377 2.31l2.219-1.429a7.184 7.184 0 0 0-6.565-3.435c-4.954 0-8.511 3.4-8.511 8.207s3.554 8.237 8.508 8.237Zm38.693-22.735v8.875a6.855 6.855 0 0 0-5.621-2.583 7.819 7.819 0 0 0-8.146 8.207 7.843 7.843 0 0 0 8.146 8.236 6.806 6.806 0 0 0 5.745-2.736v2.553h2.8V5.369Zm-5.38 20.182a5.334 5.334 0 0 1-5.441-5.684 5.309 5.309 0 0 1 5.441-5.653 5.3 5.3 0 0 1 5.41 5.653 5.327 5.327 0 0 1-5.41 5.684Zm26.3-5.593c0-4.954-3.313-8.3-7.963-8.3a7.889 7.889 0 0 0-8.078 8.209c0 4.8 3.465 8.237 8.663 8.237a8.086 8.086 0 0 0 6.353-2.614l-1.616-1.884a6.015 6.015 0 0 1-4.65 1.945c-3.191 0-5.471-1.884-5.836-4.711h13.07c.03-.274.06-.638.06-.882Zm-7.96-5.835a5.024 5.024 0 0 1 5.167 4.62h-10.334a5.021 5.021 0 0 1 5.167-4.62Zm30.4-2.462a7.26 7.26 0 0 0-6.2 2.979 5.962 5.962 0 0 0-5.593-2.979 6.529 6.529 0 0 0-5.562 2.553v-2.4h-2.8v16.109h2.924v-8.3c0-3.5 1.915-5.349 4.833-5.349 2.644 0 4.164 1.55 4.164 4.711v8.936h2.918v-8.3c0-3.5 1.915-5.349 4.833-5.349 2.644 0 4.164 1.55 4.164 4.711v8.936h2.918v-9.27c-.001-4.739-2.68-6.988-6.596-6.988Zm21.975.152L227.817 24.7l-5.626-12.887h-3.039l7.112 16.079-.517 1.125c-.79 1.854-1.672 2.492-3.07 2.492a4.122 4.122 0 0 1-2.888-1.185l-1.246 2.188a6.048 6.048 0 0 0 4.134 1.489c2.462 0 4.316-1.064 5.745-4.468l7.811-17.72ZM144.886 11.292a8.217 8.217 0 0 1 4.616 1.412 8.28 8.28 0 0 1 2.991 3.631 8.245 8.245 0 0 1-.761 7.829 8.28 8.28 0 0 1-3.632 2.991 8.245 8.245 0 0 1-7.829-.761 8.28 8.28 0 0 1-2.991-3.632 8.245 8.245 0 0 1 .761-7.829 8.28 8.28 0 0 1 3.632-2.991 8.2 8.2 0 0 1 3.213-.65Zm-.018 13.994a5.757 5.757 0 1 0-5.757-5.757 5.763 5.763 0 0 0 5.757 5.757Z"/><path d="M150.715 27.67h2.536V11.448h-2.536Z"/></g><path d="m81.888 6.575-11.37 2.639 3.385-2.639L60.031 0Z" fill="#0b2e4e"/><path d="M81.888 6.575h-7.985L60.031 0Z" fill="#004381"/></svg>